<?xml version="1.0" encoding="utf-8"?>
<!-- Generator: Adobe Illustrator 19.1.0, SVG Export Plug-In . SVG Version: 6.00 Build 0)  -->
<svg version="1.1" id="Layer_1" xmlns="http://www.w3.org/2000/svg" xmlns:xlink="http://www.w3.org/1999/xlink" x="0px" y="0px"
	 viewBox="-289 381 32 32" style="enable-background:new -289 381 32 32;" xml:space="preserve">
<style type="text/css">
	.st0{fill:none;}
	.st1{fill:#895A4D;}
	.st2{fill:#FF3939;}
	.st3{fill:#FED049;}
	.st4{fill:#10DD76;}
	.st5{fill:#5FCCFF;}
	.st6{fill:#DCD7D3;}
	.st7{fill:#162838;}
	.st8{fill:#2C4356;}
	.st9{fill:#47637A;}
</style>
<g>
	<ellipse class="st0" cx="-261.6" cy="391.8" rx="1" ry="1"/>
	<g>
		<g>
			<path class="st1" d="M-289,390.8c0,3.3,1.3,4.7,2.7,5v-11.2C-287.9,386.1-289,388.3-289,390.8z"/>
		</g>
	</g>
	<g>
		<g>
			<path class="st1" d="M-260.6,411.4c0,0,0-2.1-2-2.1h-2c0,0,6.3-5.8,0-8.3c4.1,0,4.1-2.1,6.1-2.1c2,0,2-2.1,0-2.1
				c-2,0-3.6,2.3-5.3,0.6c-0.4-0.4-0.9-2,1-2.1c1.9,0.4,4.6-0.2,5.1-0.9c-0.1-5.3-3.8-6.7-3.8-6.7l-0.3-1.2c0,0-0.6-0.1-1.1,0.6
				c-0.2-0.5-0.6-0.7-0.6-0.7s-1.1,0.3-1,1.4c-0.1,0-0.3,0-0.4,0v23.4C-262.5,411.4-260.6,411.4-260.6,411.4z M-261.6,390.8
				c0.6,0,1,0.5,1,1s-0.5,1-1,1c-0.6,0-1-0.5-1-1S-262.1,390.8-261.6,390.8z"/>
		</g>
	</g>
	<g>
		<g>
			<path class="st2" d="M-281,399.1c-1.1,1.5-1.9,3.4-1.9,5.1c0,2.1,0.7,3.7,1.9,4.8V399.1z"/>
		</g>
	</g>
	<g>
		<g>
			<path class="st2" d="M-286.3,384.6v11.2c1.3,0.3,2.6-0.2,3.4-0.9c0.6-0.5,1.4-0.5,1.9-0.1v-12.3
				C-283,382.5-284.9,383.3-286.3,384.6z"/>
		</g>
	</g>
	<g>
		<g>
			<path class="st3" d="M-275.7,411.3v-27.4c-1.4-0.9-3.2-1.4-5.2-1.4c0,0-0.1,0-0.1,0v12.3c1,0.7,1.5,2.3,0.1,4.2
				c0,0-0.1,0.1-0.1,0.1v10C-279.7,410.3-277.9,411-275.7,411.3z"/>
		</g>
	</g>
	<g>
		<g>
			<path class="st4" d="M-272.7,411.4c0.7,0,1.5,0,2.4,0v-19.4c-1.4,2.1-2.4,5.1-2.4,9c-1-6.3,0-8.6,0-12.6c0-1.9-1.1-3.5-2.9-4.6
				v27.4C-274.7,411.4-273.8,411.4-272.7,411.4z"/>
		</g>
	</g>
	<g>
		<g>
			<path class="st5" d="M-265,411.4V388c-1.5,0.2-3.6,1.5-5.3,4v19.4C-268.6,411.4-266.7,411.4-265,411.4z"/>
		</g>
	</g>
</g>
<g>
	<ellipse id="Lens" class="st6" cx="-261.7" cy="391.7" rx="1.5" ry="1.5"/>
	<ellipse id="Inside_x5F_Lens" class="st7" cx="-261.7" cy="391.7" rx="1.1" ry="1.2"/>
	<ellipse id="_x32_nd_Inner_Circle" class="st8" cx="-261.7" cy="391.7" rx="0.6" ry="0.7"/>
	<ellipse id="Reflection" class="st9" cx="-261.3" cy="391.3" rx="0.2" ry="0.2"/>
</g>
</svg>
